PathFileType	4	(X/Y/Z)	C:\Users\Biomechanik\SynologyDrive\AlexP\Athlete_03\Athlete_3_25_03_31\Squat_bw_02\marker_experimental.trc
DataRate	CameraRate	NumFrames	NumMarkers	Units	OrigDataRate	OrigDataStartFrame	OrigNumFrames
200.000000	200.000000	4	55	mm	200.000000	453	604
Frame#	Time	BL			BR			GLAB			RFHD			LFHD			C7			T6			SPINMOL			SPINM2			SPINM3			T12			BELTOL			BELT2			BELT3			SACROL			SACR2			SACR3			LTHOL			LTH2			LTH3			LSHAOL			LSHA2			LSHA3			LHEE			LTOE			LM5			RTHOL			RTH2			RTH3			RSHAOL			RSHA2			RSHA3			RHEE			RTOE			RM5			STRN			XIPH			LACR			LUAOL			LUA2			LUA3			LLAOL			LLA2			LLA3			LWRR			LWRU			RACR			RUAOL			RUA2			RUA3			RLAOL			RLA2			RLA3			RWRR			RWRU			
		X1	Y1	Z1	X2	Y2	Z2	X3	Y3	Z3	X4	Y4	Z4	X5	Y5	Z5	X6	Y6	Z6	X7	Y7	Z7	X8	Y8	Z8	X9	Y9	Z9	X10	Y10	Z10	X11	Y11	Z11	X12	Y12	Z12	X13	Y13	Z13	X14	Y14	Z14	X15	Y15	Z15	X16	Y16	Z16	X17	Y17	Z17	X18	Y18	Z18	X19	Y19	Z19	X20	Y20	Z20	X21	Y21	Z21	X22	Y22	Z22	X23	Y23	Z23	X24	Y24	Z24	X25	Y25	Z25	X26	Y26	Z26	X27	Y27	Z27	X28	Y28	Z28	X29	Y29	Z29	X30	Y30	Z30	X31	Y31	Z31	X32	Y32	Z32	X33	Y33	Z33	X34	Y34	Z34	X35	Y35	Z35	X36	Y36	Z36	X37	Y37	Z37	X38	Y38	Z38	X39	Y39	Z39	X40	Y40	Z40	X41	Y41	Z41	X42	Y42	Z42	X43	Y43	Z43	X44	Y44	Z44	X45	Y45	Z45	X46	Y46	Z46	X47	Y47	Z47	X48	Y48	Z48	X49	Y49	Z49	X50	Y50	Z50	X51	Y51	Z51	X52	Y52	Z52	X53	Y53	Z53	X54	Y54	Z54	X55	Y55	Z55	

454	2.265	960.7081909179688	36.20357894897473	-1933.536987304688	1063.17822265625	32.88729095458984	86.6412353515625	550.8715209960938	1002.598266601563	-1203.222900390625	503.7882385253906	1032.951904296875	-1140.113037109375	509.4845886230469	1029.017822265625	-1276.045532226562	290.2518310546875	911.0567016601564	-1205.579956054688	162.7249450683594	811.5822143554689	-1212.2998046875	141.6124725341797	788.6623535156251	-1234.81201171875	130.99560546875	783.3339233398439	-1186.320434570312	98.94472503662109	739.1127929687501	-1223.6865234375	68.05623626708984	691.2398071289064	-1222.846313476562	33.52435684204102	683.2675781250001	-1238.618530273438	31.81680488586426	679.5900268554689	-1188.168701171875	-3.781078100204468	631.7914428710939	-1219.118408203125	-61.53936386108398	509.0429992675782	-1244.56884765625	-61.23126220703125	507.1943664550782	-1193.205810546875	-66.87076568603516	447.2882690429688	-1220.674438476562	144.3383483886719	397.3129272460939	-1514.458862304688	190.4369354248047	338.6820373535157	-1541.712768554688	194.8029022216797	388.4802246093751	-1548.369262695312	237.2950134277344	294.3750000000001	-1626.655029296875	177.6768188476562	255.8716583251954	-1590.061401367188	219.6129913330078	237.1854400634766	-1610.990600585938	114.6550750732422	71.87606811523446	-1472.417846679688	318.4220581054688	49.86305999755869	-1546.475830078125	240.1378631591797	25.79582977294932	-1627.11181640625	120.46435546875	382.2678833007813	-918.5051879882812	160.0979919433594	437.8573913574219	-876.6172485351562	169.4225616455078	389.1454162597657	-880.4296264648438	209.8688354492188	307.8847656250001	-799.6878662109375	212.5270080566406	228.986312866211	-801.0228271484375	181.0016632080078	258.8697204589844	-825.2598876953125	96.84629821777344	65.53031158447271	-967.7102661132812	287.0539855957031	47.24236297607428	-877.0765380859375	200.4329986572266	38.55764389038091	-801.6077270507812	407.95068359375	746.2023925781251	-1209.588500976562	353.9073181152344	609.9830322265626	-1206.093505859375	348.387939453125	859.9623413085939	-1370.578125	254.9559936523438	779.9097290039064	-1492.048950195312	203.9387359619141	742.8754272460939	-1511.446655273438	247.3109436035156	734.3214721679689	-1538.674072265625	265.8138732910156	672.4510498046876	-1626.14697265625	339.90185546875	644.3535156250001	-1626.777709960938	324.097412109375	692.2247924804689	-1622.70556640625	412.5508422851562	746.3887939453126	-1613.180786132812	405.2292175292969	745.4468994140626	-1535.366577148438	344.9962463378906	862.8029174804689	-1060.412109375	255.8049621582031	790.0516967773439	-940.4581909179688	238.2365417480469	752.3731689453125	-889.9176025390625	204.4945831298828	750.3427124023439	-929.2501831054688	277.2837219238281	705.169677734375	-786.2335815429688	302.7660522460938	779.679443359375	-799.1326904296875	330.2139282226562	738.5658569335938	-790.16064453125	392.436767578125	807.1209106445312	-810.8703002929688	391.211669921875	799.788330078125	-889.1198120117188	
455	2.27	960.7079467773438	36.20338821411145	-1933.536743164062	1063.178344726562	32.88703918457031	86.64153289794922	550.5823974609375	1007.374145507813	-1203.142700195312	503.4806518554688	1037.7158203125	-1140.031982421875	509.1673583984375	1033.755249023438	-1275.947021484375	290.0375061035156	915.5377807617189	-1205.494018554688	162.6635437011719	815.8007202148439	-1212.234008789062	141.6261596679688	792.8445434570314	-1234.747436523438	130.9705657958984	787.5241088867189	-1186.248413085938	99.01793670654297	743.2426757812501	-1223.630981445312	68.04555511474609	695.1584472656251	-1222.850219726562	33.53069305419922	687.1938476562501	-1238.635009765625	31.80315780639648	683.5568847656251	-1188.174682617188	-3.854522466659546	635.8031616210939	-1219.11669921875	-61.64910125732422	513.6997070312501	-1244.49609375	-61.3916015625	511.8370361328126	-1193.127807617188	-67.21060943603516	451.9655456542969	-1220.607788085938	144.1357574462891	399.7613220214845	-1514.306640625	189.8067932128906	340.555145263672	-1541.120239257812	194.5957641601562	390.288299560547	-1548.067993164062	237.127685546875	294.5999755859376	-1626.4150390625	177.5247497558594	256.0158996582032	-1589.887451171875	219.4972229003906	237.3842773437501	-1610.791137695312	114.6139068603516	71.90880584716805	-1472.488647460938	318.3797302246094	49.8710823059083	-1546.533447265625	240.1297912597656	25.76069641113291	-1627.1494140625	119.6922073364258	384.9448852539063	-918.4423217773438	159.8157196044922	439.9002990722657	-876.1879272460938	168.7307586669922	391.1509094238282	-880.3526000976562	209.259521484375	308.0990295410157	-799.641357421875	212.0063018798828	229.2046051025391	-800.9358520507812	180.4442291259766	259.0371398925782	-825.186279296875	96.71782684326172	65.52297210693365	-967.5863037109375	286.9894104003906	47.30731582641607	-876.9095458984375	200.3603210449219	38.49787139892583	-801.5076904296875	407.8280944824219	750.8098144531251	-1209.475463867188	353.9197387695312	614.6313476562501	-1206.003540039062	348.1486511230469	864.5003662109376	-1370.497436523438	254.7689514160156	784.3090209960939	-1491.9033203125	203.7941131591797	747.2012329101564	-1511.266845703125	247.1571502685547	738.7153320312501	-1538.5595703125	265.7236633300781	676.8833007812501	-1626.013916015625	339.8642883300781	648.9340820312501	-1626.659301757812	323.9655456542969	696.7772827148439	-1622.576171875	412.3251342773438	751.0981445312501	-1613.087524414062	405.019775390625	750.1690063476564	-1535.272216796875	344.7779235839844	867.3040771484376	-1060.30078125	255.6428527832031	794.3826293945314	-940.373779296875	238.1143493652344	756.6531982421875	-889.864990234375	204.3707885742188	754.6304931640626	-929.2024536132812	277.203369140625	709.3889770507812	-786.1895141601562	302.6169738769531	783.9388427734375	-799.021240234375	330.1010131835938	742.8363037109375	-790.08203125	392.2704162597656	811.460205078125	-810.7074584960938	391.0736999511719	804.20654296875	-888.957763671875	
456	2.275	960.7076416015625	36.20328140258801	-1933.53662109375	1063.178588867188	32.88679504394531	86.64179992675781	550.25244140625	1012.284973144531	-1203.062744140625	503.1260375976562	1042.606323242188	-1139.956787109375	508.8034973144531	1038.621459960938	-1275.8466796875	289.7974548339844	920.1228637695314	-1205.411743164062	162.5854797363281	820.1134643554689	-1212.169067382812	141.6223907470703	797.1179199218751	-1234.683837890625	130.9331512451172	791.8016967773439	-1186.179809570312	99.08286285400391	747.4584350585939	-1223.573120117188	68.01657104492188	699.1513061523439	-1222.85546875	33.5235595703125	691.1849365234376	-1238.653076171875	31.77263832092285	687.5939941406251	-1188.18408203125	-3.939457178115845	639.8792724609376	-1219.116333007812	-61.73211288452148	518.4024047851564	-1244.416259765625	-61.52083206176758	516.5263061523439	-1193.043212890625	-67.51644134521484	456.6912536621094	-1220.534057617188	143.9618225097656	402.2347412109376	-1514.134643554688	189.2003326416016	342.4601135253907	-1540.491577148438	194.4086608886719	392.1194763183595	-1547.742919921875	236.9703521728516	294.8241577148439	-1626.1640625	177.3821258544922	256.1601562500001	-1589.703002929688	219.3908538818359	237.5825500488282	-1610.5810546875	114.5751724243164	71.93936157226571	-1472.55419921875	318.3394165039062	49.87506866455087	-1546.585205078125	240.1240081787109	25.72879219055186	-1627.183471679688	118.9555282592773	387.6528930664063	-918.3822021484375	159.5602416992188	441.9617309570313	-875.753173828125	168.0659637451172	393.1817932128907	-880.2779541015625	208.6603240966797	308.3097229003907	-799.6004028320312	211.5004577636719	229.4198303222657	-800.85986328125	179.8988800048828	259.2013854980469	-825.120361328125	96.59573364257812	65.51746368408209	-967.4672241210938	286.9260864257812	47.36911010742193	-876.74951171875	200.29150390625	38.43996047973638	-801.4120483398438	407.6997375488281	755.5315551757814	-1209.367797851562	353.9276428222656	619.3776855468751	-1205.916625976562	347.8892517089844	869.1477050781251	-1370.419921875	254.5690002441406	788.8139038085939	-1491.762329101562	203.6371307373047	751.6317749023439	-1511.096313476562	247.0031585693359	743.2089233398439	-1538.44970703125	265.631591796875	681.4307250976564	-1625.890747070312	339.8282165527344	653.6413574218751	-1626.552124023438	323.8253784179688	701.4569702148439	-1622.45703125	412.0860595703125	755.9426269531251	-1612.996704101562	404.7959899902344	755.0220336914064	-1535.182861328125	344.547119140625	871.9180908203126	-1060.193237304688	255.4687957763672	798.8293457031251	-940.2896728515625	237.9807739257812	761.0558471679688	-889.810302734375	204.2384033203125	759.0340576171876	-929.1575317382812	277.1105041503906	713.7463989257812	-786.138916015625	302.4485168457031	788.3370361328125	-798.9168701171875	329.9729614257812	747.2470092773438	-790.0072021484375	392.0841674804688	815.94482421875	-810.5498657226562	390.9161071777344	808.7599487304688	-888.7998046875	
457	2.28	960.707275390625	36.20335388183606	-1933.536376953125	1063.1787109375	32.88658905029296	86.64203643798828	549.8814086914062	1017.327392578125	-1202.984619140625	502.7252197265625	1047.62060546875	-1139.8876953125	508.3930053710938	1043.61328125	-1275.746337890625	289.53076171875	924.8098754882814	-1205.332641601562	162.4898529052734	824.5181884765626	-1212.104125976562	141.6002655029297	801.4803466796876	-1234.620727539062	130.8829498291016	796.1643066406251	-1186.11376953125	99.13825225830078	751.7580566406251	-1223.512939453125	67.97111511230469	703.2180175781251	-1222.861450195312	33.50381088256836	695.2390136718751	-1238.673583984375	31.72522926330566	691.7011718750001	-1188.197387695312	-4.034610748291016	644.0185546875001	-1219.117553710938	-61.78744125366211	523.1472167968751	-1244.3310546875	-61.61805725097656	521.2586059570314	-1192.953735351562	-67.78620147705078	461.4607543945313	-1220.454956054688	143.8134307861328	404.7330017089845	-1513.94189453125	188.6153259277344	344.3969116210939	-1539.825317382812	194.2382049560547	393.9736633300782	-1547.3935546875	236.8193664550781	295.0478820800782	-1625.9033203125	177.2462463378906	256.3040466308595	-1589.508544921875	219.2911529541016	237.7802886962891	-1610.360961914062	114.5384521484375	71.96701812744149	-1472.615112304688	318.3009643554688	49.87576293945322	-1546.631469726562	240.1202087402344	25.69987678527842	-1627.21435546875	118.2550582885742	390.3885498046876	-918.3264770507812	159.3307647705078	444.0390014648438	-875.3145751953125	167.4287261962891	395.2357482910157	-880.2074584960938	208.0709533691406	308.5171813964844	-799.5658569335938	211.0094757080078	229.6322479248047	-800.795654296875	179.3654937744141	259.3625793457032	-825.0625610351562	96.48053741455078	65.51361846923834	-967.3532104492188	286.8644409179688	47.42731094360357	-876.5968627929688	200.2265167236328	38.38358306884771	-801.3211669921875	407.5650329589844	760.3647460937501	-1209.265014648438	353.9292602539062	624.2163085937501	-1205.833129882812	347.6095886230469	873.9011840820314	-1370.344848632812	254.3559875488281	793.4224243164064	-1491.626220703125	203.4668731689453	756.1661987304689	-1510.936401367188	246.8483123779297	747.8005371093751	-1538.344116210938	265.5364990234375	686.0920410156251	-1625.777709960938	339.7919616699219	658.4723510742189	-1626.456909179688	323.6762390136719	706.2607421875001	-1622.348266601562	411.833251953125	760.9185180664064	-1612.908081054688	404.5580749511719	760.0012817382814	-1535.098510742188	344.3029479980469	876.6425781250001	-1060.088256835938	255.2820281982422	803.3894653320314	-940.2052001953125	237.8348236083984	765.5787963867188	-889.7526245117188	204.0965728759766	763.5513305664064	-929.1142578125	277.0045166015625	718.2403564453125	-786.0809936523438	302.2598571777344	792.8724365234375	-798.8192138671875	329.8290710449219	751.796875	-789.9346923828125	391.8768310546875	820.5735473632812	-810.3980102539062	390.7371520996094	813.4469604492188	-888.6466064453125	
